<?xml version="1.0" encoding="utf-8"?>
<svg class="flux_logo" version="1.1" xmlns="http://www.w3.org/2000/svg" viewBox="0 0 841.9 203.8">
    <style type="text/css">
        .flux_logo .brand{fill:#000000}
        .flux_logo .yellow{fill:#F29100}
        .flux_logo .blue{fill:#0069B3}
        .flux_logo .green{fill:#5EB030}
        .flux_logo .red{fill:#E20613}
    </style>
    <path class="brand" d="M0 203.6V36.7c0-10.3 3.5-19 10.6-26.1S26.3 0 36.7 0h140v35.1H35.4v48.8h141.3V119H35.4v84.5H0V203.6z"/>
    <path class="brand" d="M235.8 162.5h105.9v41H231.1c-10 0-18.6-3.6-25.9-10.8 -7.2-7.2-10.8-15.8-10.8-25.8V0h41.3L235.8 162.5 235.8 162.5z"/>
    <path class="brand" d="M538.2 166.9c0 10.1-3.6 18.8-10.8 25.9 -7.2 7.2-15.8 10.7-25.9 10.7H398.3c-10 0-18.6-3.6-25.8-10.8 -7.2-7.2-10.8-15.8-10.8-25.8V0h39.1v168.4H499V0h39.3L538.2 166.9 538.2 166.9z"/>
    <path class="brand" d="M668.2 101.5l67.8 102h-41.3l-47.1-70.9 -47.1 70.9h-41L627 101.8 559.4 0.1h41L647.5 71l47.1-70.9H736L668.2 101.5z"/>
    <path class="yellow" d="M788 118.6c0 9.7-7.9 17.6-17.7 17.6 -9.7 0-17.7-7.9-17.7-17.6 0-9.8 7.9-17.7 17.7-17.7C780.1 100.9 788 108.8 788 118.6z"/>
    <path class="blue" d="M841.9 118.6c0 9.7-7.9 17.6-17.7 17.6 -9.7 0-17.6-7.9-17.6-17.6 0-9.8 7.9-17.7 17.6-17.7C834 100.9 841.9 108.8 841.9 118.6z"/>
    <path class="green" d="M788 186.2c0 9.7-7.9 17.6-17.7 17.6 -9.7 0-17.7-7.9-17.7-17.6 0-9.8 7.9-17.7 17.7-17.7C780.1 168.5 788 176.4 788 186.2z"/>
    <path class="red" d="M841.9 186.2c0 9.7-7.9 17.6-17.7 17.6 -9.7 0-17.6-7.9-17.6-17.6 0-9.8 7.9-17.7 17.6-17.7C834 168.5 841.9 176.4 841.9 186.2z"/>
</svg>
